:FULLY-SPECIFIED
:FORCE-ALL-JOINTS-BE-3DOF
:DEGREES
34
root 6.57592 16.7724 -27.6814 4.68551 -0.262844 -0.425486
lfemur -16.8721 4.87822 -20.9532
ltibia 35.4689 -0 0
lfoot -33.9452 0.388955 -0.564352
ltoes 37.1357 -0 0
rfemur -35.1297 -9.71201 23.4846
rtibia 48.4024 -0 0
rfoot -19.3956 -2.32814 2.92815
rtoes 8.98754 -0 0
lowerback 1.53908 1.90533 -5.61736
upperback -0.842372 2.40449 2.05076
thorax -1.99974 1.34342 5.53824
lowerneck -10.4167 -1.9128 1.42234
upperneck -1.04731 -2.7034 -0.292551
head 1.40334 -1.35119 -0.430859
lclavicle -8.38909e-14 -2.99839e-14 -1.01853e-29
lhumerus -41.9239 -13.428 97.2053
lradius 38.8225 -0 0
lwrist 6.02013 0 0
lhand -6.72017 4.06394 0.129693
lfingers 7.12502 -0 0
lthumb 19.1152 32.8702 0.0275783
rclavicle -8.38909e-14 -2.99839e-14 -1.01853e-29
rhumerus -43.221 -9.68326 -79.2213
rradius 50.6688 -0 0
rwrist -1.32808 0 0
rhand -25.1753 -23.3954 0.0363143
rfingers 7.12502 -0 0
rthumb 1.34231 -53.3603 0.0350584
35
root 6.58734 16.7697 -27.6678 4.53449 -0.16469 -0.356877
lfemur -16.7688 4.96457 -20.9642
ltibia 35.4769 -0 0
lfoot -33.7903 0.255421 -0.577601
ltoes 37.0809 -0 0
rfemur -35.6876 -10.0247 23.6853
rtibia 48.8513 -0 0
rfoot -19.017 -2.04758 2.99795
rtoes 8.5495 -0 0
lowerback 1.68981 1.84706 -5.64293
upperback -0.782405 2.31701 2.01534
thorax -2.00784 1.29945 5.52341
lowerneck -10.4364 -1.90055 1.40247
upperneck -1.03482 -2.68617 -0.255232
head 1.41172 -1.34151 -0.415001
lclavicle -8.30503e-14 -2.95389e-14 -1.04236e-29
lhumerus -41.9195 -13.5259 97.1393
lradius 38.9591 -0 0
lwrist 6.13732 0 0
lhand -6.55636 4.09297 0.132735
lfingers 7.12502 -0 0
lthumb 19.272 32.8767 0.0282248
rclavicle -8.30503e-14 -2.95389e-14 -1.04236e-29
rhumerus -43.2072 -9.85913 -79.0279
rradius 50.9809 -0 0
rwrist -1.70088 0 0
rhand -25.2148 -23.4291 0.0371641
rfingers 7.12502 -0 0
rthumb 1.30411 -53.3941 0.0358788
36
root 6.59876 16.7671 -27.6542 4.38359 -0.0663545 -0.288528
lfemur -16.6654 5.05095 -20.975
ltibia 35.4849 -0 0
lfoot -33.6354 0.121851 -0.59049
ltoes 37.0262 -0 0
rfemur -36.2471 -10.3355 23.8894
rtibia 49.3003 -0 0
rfoot -18.638 -1.76655 3.06589
rtoes 8.11145 -0 0
lowerback 1.84055 1.78885 -5.66866
upperback -0.722388 2.22957 1.97983
thorax -2.01594 1.25549 5.50859
lowerneck -10.4561 -1.88831 1.3826
upperneck -1.02233 -2.66896 -0.21791
head 1.42012 -1.33184 -0.399141
lclavicle -8.22097e-14 -2.90938e-14 -1.06554e-29
lhumerus -41.915 -13.6238 97.0733
lradius 39.0957 -0 0
lwrist 6.25451 0 0
lhand -6.39255 4.12201 0.135693
lfingers 7.12502 -0 0
lthumb 19.4289 32.8831 0.0288537
rclavicle -8.22097e-14 -2.90938e-14 -1.06554e-29
rhumerus -43.194 -10.035 -78.8345
rradius 51.293 -0 0
rwrist -2.07367 0 0
rhand -25.2544 -23.4629 0.0379907
rfingers 7.12502 -0 0
rthumb 1.26591 -53.4278 0.0366768
37
root 6.61018 16.7644 -27.6406 4.23281 0.0321602 -0.220438
lfemur -16.5621 5.13734 -20.9856
ltibia 35.4929 -0 0
lfoot -33.4805 -0.0117531 -0.603017
ltoes 36.9714 -0 0
rfemur -36.8084 -10.6444 24.0967
rtibia 49.7492 -0 0
rfoot -18.2587 -1.48506 3.13197
rtoes 7.6734 -0 0
lowerback 1.99132 1.73071 -5.69453
upperback -0.66232 2.14217 1.94423
thorax -2.02402 1.21151 5.49378
lowerneck -10.4758 -1.87608 1.36272
upperneck -1.00982 -2.65175 -0.180584
head 1.42851 -1.32217 -0.38328
lclavicle -8.13692e-14 -2.86488e-14 -1.08807e-29
lhumerus -41.9104 -13.7217 97.0072
lradius 39.2323 -0 0
lwrist 6.3717 0 0
lhand -6.22873 4.15107 0.138568
lfingers 7.12502 -0 0
lthumb 19.5857 32.8896 0.0294649
rclavicle -8.13692e-14 -2.86488e-14 -1.08807e-29
rhumerus -43.1815 -10.211 -78.6409
rradius 51.6052 -0 0
rwrist -2.44647 0 0
rhand -25.2939 -23.4966 0.038794
rfingers 7.12502 -0 0
rthumb 1.22772 -53.4615 0.0374523
38
root 6.62161 16.7617 -27.6271 4.08214 0.130854 -0.152607
lfemur -16.4588 5.22376 -20.9961
ltibia 35.5009 -0 0
lfoot -33.3255 -0.145391 -0.615183
ltoes 36.9166 -0 0
rfemur -37.3713 -10.9512 24.3073
rtibia 50.1982 -0 0
rfoot -17.879 -1.20312 3.19618
rtoes 7.23535 -0 0
lowerback 2.14212 1.67263 -5.72056
upperback -0.602202 2.05481 1.90854
thorax -2.03208 1.16754 5.47898
lowerneck -10.4956 -1.86385 1.34284
upperneck -0.997297 -2.63454 -0.143255
head 1.4369 -1.31249 -0.367418
lclavicle -8.05286e-14 -2.82037e-14 -1.10994e-29
lhumerus -41.9057 -13.8196 96.941
lradius 39.3689 -0 0
lwrist 6.48888 0 0
lhand -6.06492 4.18013 0.14136
lfingers 7.12502 -0 0
lthumb 19.7425 32.896 0.0300585
rclavicle -8.05286e-14 -2.82037e-14 -1.10994e-29
rhumerus -43.1695 -10.387 -78.4473
rradius 51.9173 -0 0
rwrist -2.81926 0 0
rhand -25.3335 -23.5303 0.039574
rfingers 7.12502 -0 0
rthumb 1.18952 -53.4952 0.0382054
39
root 6.63303 16.7591 -27.6135 3.93159 0.229725 -0.0850352
lfemur -16.3555 5.31019 -21.0065
ltibia 35.5089 -0 0
lfoot -33.1705 -0.279062 -0.626987
ltoes 36.8618 -0 0
rfemur -37.936 -11.2559 24.5212
rtibia 50.6472 -0 0
rfoot -17.4989 -0.920745 3.25853
rtoes 6.7973 -0 0
lowerback 2.29293 1.61463 -5.74674
upperback -0.542031 1.96748 1.87276
thorax -2.04014 1.12357 5.46418
lowerneck -10.5153 -1.85163 1.32295
upperneck -0.984766 -2.61735 -0.105923
head 1.4453 -1.30283 -0.351554
lclavicle -7.9688e-14 -2.77587e-14 -1.13116e-29
lhumerus -41.9008 -13.9175 96.8749
lradius 39.5055 -0 0
lwrist 6.60607 0 0
lhand -5.9011 4.20919 0.14407
lfingers 7.12502 -0 0
lthumb 19.8994 32.9025 0.0306344
rclavicle -7.9688e-14 -2.77587e-14 -1.13116e-29
rhumerus -43.1581 -10.5631 -78.2536
rradius 52.2294 -0 0
rwrist -3.19205 0 0
rhand -25.373 -23.564 0.0403308
rfingers 7.12502 -0 0
rthumb 1.15132 -53.5289 0.0389359
40
root 6.64445 16.7564 -27.5999 3.78116 0.328774 -0.0177232
lfemur -16.2521 5.39664 -21.0167
ltibia 35.5169 -0 0
lfoot -33.0155 -0.412765 -0.63843
ltoes 36.8071 -0 0
rfemur -38.5024 -11.5586 24.7384
rtibia 51.0961 -0 0
rfoot -17.1186 -0.637941 3.31901
rtoes 6.35925 -0 0
lowerback 2.44377 1.55669 -5.77307
upperback -0.48181 1.88019 1.83689
thorax -2.04819 1.07959 5.44939
lowerneck -10.5351 -1.83941 1.30306
upperneck -0.972224 -2.60017 -0.0685875
head 1.4537 -1.29316 -0.335689
lclavicle -7.88475e-14 -2.73136e-14 -1.15173e-29
lhumerus -41.8959 -14.0154 96.8087
lradius 39.6421 -0 0
lwrist 6.72326 0 0
lhand -5.73728 4.23827 0.146695
lfingers 7.12502 -0 0
lthumb 20.0562 32.909 0.0311926
rclavicle -7.88475e-14 -2.73136e-14 -1.15173e-29
rhumerus -43.1473 -10.7391 -78.0599
rradius 52.5416 -0 0
rwrist -3.56485 0 0
rhand -25.4126 -23.5978 0.0410642
rfingers 7.12502 -0 0
rthumb 1.11312 -53.5626 0.039644
41
root 6.65587 16.7537 -27.5863 3.63084 0.427998 0.0493293
lfemur -16.1488 5.48311 -21.0267
ltibia 35.5249 -0 0
lfoot -32.8605 -0.546498 -0.649511
ltoes 36.7523 -0 0
rfemur -39.0706 -11.8591 24.9588
rtibia 51.5451 -0 0
rfoot -16.7379 -0.354724 3.37761
rtoes 5.92121 -0 0
lowerback 2.59463 1.49883 -5.79956
upperback -0.421537 1.79294 1.80093
thorax -2.05622 1.03561 5.4346
lowerneck -10.5548 -1.8272 1.28317
upperneck -0.959672 -2.58299 -0.0312488
head 1.46211 -1.2835 -0.319822
lclavicle -7.80069e-14 -2.68686e-14 -1.17164e-29
lhumerus -41.8908 -14.1133 96.7424
lradius 39.7787 -0 0
lwrist 6.84045 0 0
lhand -5.57346 4.26735 0.149238
lfingers 7.12502 -0 0
lthumb 20.2131 32.9154 0.0317332
rclavicle -7.80069e-14 -2.68686e-14 -1.17164e-29
rhumerus -43.1371 -10.9152 -77.8661
rradius 52.8537 -0 0
rwrist -3.93764 0 0
rhand -25.4521 -23.6315 0.0417744
rfingers 7.12502 -0 0
rthumb 1.07492 -53.5963 0.0403296
42
root 6.66729 16.7511 -27.5728 3.48063 0.527399 0.116122
lfemur -16.0455 5.5696 -21.0366
ltibia 35.5329 -0 0
lfoot -32.7054 -0.680262 -0.66023
ltoes 36.6975 -0 0
rfemur -39.6406 -12.1575 25.1826
rtibia 51.994 -0 0
rfoot -16.3569 -0.0711064 3.43433
rtoes 5.48316 -0 0
lowerback 2.74551 1.44103 -5.82619
upperback -0.361211 1.70572 1.76488
thorax -2.06425 0.991629 5.41982
lowerneck -10.5746 -1.815 1.26327
upperneck -0.947108 -2.56582 0.0060931
head 1.47052 -1.27383 -0.303954
lclavicle -7.71663e-14 -2.64236e-14 -1.1909e-29
lhumerus -41.8856 -14.2112 96.6762
lradius 39.9152 -0 0
lwrist 6.95763 0 0
lhand -5.40964 4.29644 0.151698
lfingers 7.12502 -0 0
lthumb 20.3699 32.9219 0.032256
rclavicle -7.71663e-14 -2.64236e-14 -1.1909e-29
rhumerus -43.1275 -11.0914 -77.6721
rradius 53.1658 -0 0
rwrist -4.31044 0 0
rhand -25.4917 -23.6652 0.0424613
rfingers 7.12502 -0 0
rthumb 1.03672 -53.63 0.0409928
43
root 6.67871 16.7484 -27.5592 3.33054 0.626974 0.182655
lfemur -15.9422 5.6561 -21.0463
ltibia 35.5409 -0 0
lfoot -32.5503 -0.814054 -0.670587
ltoes 36.6427 -0 0
rfemur -40.2125 -12.4537 25.4096
rtibia 52.443 -0 0
rfoot -15.9756 0.2129 3.48917
rtoes 5.04511 -0 0
lowerback 2.89641 1.38331 -5.85298
upperback -0.300834 1.61855 1.72874
thorax -2.07226 0.947645 5.40505
lowerneck -10.5943 -1.80281 1.24337
upperneck -0.934533 -2.54866 0.0434383
head 1.47892 -1.26418 -0.288085
lclavicle -7.63258e-14 -2.59785e-14 -1.20951e-29
lhumerus -41.8803 -14.3091 96.6098
lradius 40.0518 -0 0
lwrist 7.07482 0 0
lhand -5.24582 4.32554 0.154074
lfingers 7.12502 -0 0
lthumb 20.5267 32.9283 0.0327612
rclavicle -7.63258e-14 -2.59785e-14 -1.20951e-29
rhumerus -43.1185 -11.2676 -77.4781
rradius 53.478 -0 0
rwrist -4.68323 0 0
rhand -25.5312 -23.6989 0.0431249
rfingers 7.12502 -0 0
rthumb 0.99852 -53.6637 0.0416335
44
root 6.69013 16.7457 -27.5456 3.18056 0.726723 0.248929
lfemur -15.8389 5.74262 -21.0559
ltibia 35.5489 -0 0
lfoot -32.3952 -0.947874 -0.680582
ltoes 36.5879 -0 0
rfemur -40.7862 -12.7477 25.6399
rtibia 52.8919 -0 0
rfoot -15.5941 0.497281 3.54212
rtoes 4.60706 -0 0
lowerback 3.04734 1.32565 -5.87992
upperback -0.240404 1.53141 1.69251
thorax -2.08026 0.90366 5.39028
lowerneck -10.6141 -1.79062 1.22347
upperneck -0.921947 -2.53151 0.0807868
head 1.48734 -1.25452 -0.272214
lclavicle -7.54852e-14 -2.55335e-14 -1.22746e-29
lhumerus -41.8749 -14.407 96.5435
lradius 40.1884 -0 0
lwrist 7.19201 0 0
lhand -5.08199 4.35464 0.156368
lfingers 7.12502 -0 0
lthumb 20.6836 32.9348 0.0332487
rclavicle -7.54852e-14 -2.55335e-14 -1.22746e-29
rhumerus -43.1101 -11.4438 -77.284
rradius 53.7901 -0 0
rwrist -5.05603 0 0
rhand -25.5708 -23.7326 0.0437653
rfingers 7.12502 -0 0
rthumb 0.96032 -53.6974 0.0422516
45
root 6.70155 16.7431 -27.532 3.0307 0.826645 0.314943
lfemur -15.7356 5.82916 -21.0653
ltibia 35.5569 -0 0
lfoot -32.2401 -1.08172 -0.690215
ltoes 36.5332 -0 0
rfemur -41.3618 -13.0393 25.8735
rtibia 53.3409 -0 0
rfoot -15.2122 0.782026 3.59317
rtoes 4.16901 -0 0
lowerback 3.19829 1.26807 -5.90701
upperback -0.179921 1.44431 1.65619
thorax -2.08824 0.859673 5.37552
lowerneck -10.6338 -1.77844 1.20356
upperneck -0.90935 -2.51436 0.118139
head 1.49575 -1.24486 -0.256342
lclavicle -7.46446e-14 -2.50884e-14 -1.24477e-29
lhumerus -41.8693 -14.5048 96.4771
lradius 40.325 -0 0
lwrist 7.30919 0 0
lhand -4.91817 4.38375 0.158578
lfingers 7.12502 -0 0
lthumb 20.8404 32.9413 0.0337185
rclavicle -7.46446e-14 -2.50884e-14 -1.24477e-29
rhumerus -43.1024 -11.62 -77.0898
rradius 54.1022 -0 0
rwrist -5.42882 0 0
rhand -25.6103 -23.7664 0.0443823
rfingers 7.12502 -0 0
rthumb 0.922119 -53.7311 0.0428474
46
root 6.71297 16.7404 -27.5185 2.88094 0.926739 0.380697
lfemur -15.6322 5.91572 -21.0746
ltibia 35.5649 -0 0
lfoot -32.0849 -1.21559 -0.699485
ltoes 36.4784 -0 0
rfemur -41.9393 -13.3287 26.1103
rtibia 53.7898 -0 0
rfoot -14.8301 1.06712 3.64233
rtoes 3.73096 -0 0
lowerback 3.34927 1.21055 -5.93425
upperback -0.119386 1.35724 1.61977
thorax -2.09622 0.815683 5.36077
lowerneck -10.6536 -1.76627 1.18364
upperneck -0.896742 -2.49722 0.155494
head 1.50417 -1.23521 -0.240469
lclavicle -7.3804e-14 -2.46434e-14 -1.26141e-29
lhumerus -41.8636 -14.6027 96.4107
lradius 40.4616 -0 0
lwrist 7.42638 0 0
lhand -4.75434 4.41287 0.160705
lfingers 7.12502 -0 0
lthumb 20.9973 32.9477 0.0341706
rclavicle -7.3804e-14 -2.46434e-14 -1.26141e-29
rhumerus -43.0952 -11.7963 -76.8956
rradius 54.4144 -0 0
rwrist -5.80161 0 0
rhand -25.6499 -23.8001 0.0449761
rfingers 7.12502 -0 0
rthumb 0.883918 -53.7648 0.0434206
